<svg width="27.500000" height="24.560455" viewBox="0 0 27.5 24.5605" fill="none" xmlns="http://www.w3.org/2000/svg" xmlns:xlink="http://www.w3.org/1999/xlink">
	<desc>
			Created with Pixso.
	</desc>
	<defs/>
	<path id="Icon Home" d="M22.5 24.56L5 24.56C4.66 24.56 4.35 24.42 4.11 24.19C3.88 23.96 3.75 23.64 3.75 23.31L3.75 12.06L0 12.06L12.9 0.32C13.13 0.11 13.43 0 13.75 0C14.06 0 14.36 0.11 14.59 0.32L27.5 12.06L23.75 12.06L23.75 23.31C23.75 23.64 23.61 23.96 23.38 24.19C23.14 24.42 22.83 24.56 22.5 24.56ZM6.25 22.06L21.25 22.06L21.25 9.75L13.75 2.93L6.25 9.75L6.25 22.06Z" fill="#444444" fill-opacity="1.000000" fill-rule="evenodd"/>
</svg>
