<svg width="24.000000" height="24.000000" viewBox="0 0 24 24" fill="none" xmlns="http://www.w3.org/2000/svg" xmlns:xlink="http://www.w3.org/1999/xlink">
	<desc>
			Created with Pixso.
	</desc>
	<defs>
		<clipPath id="clip3_56">
			<rect id="Icon Donate" width="24.000000" height="24.000000" fill="white" fill-opacity="0"/>
		</clipPath>
	</defs>
	<rect id="Icon Donate" width="24.000000" height="24.000000" fill="#FFFFFF" fill-opacity="0"/>
	<g clip-path="url(#clip3_56)">
		<path id="Vector" d="M15.33 7.88C14.36 8.87 13.41 9.89 12.4 10.84C12.17 11.05 11.8 11.05 11.57 10.82L8.66 7.88C7.77 6.99 7.77 5.56 8.66 4.67C9.55 3.77 11 3.77 11.89 4.67L11.99 4.78L12.1 4.67C12.53 4.24 13.11 4 13.72 4C14.32 4 14.91 4.24 15.33 4.67C15.76 5.1 16 5.67 16 6.27C16 6.88 15.76 7.45 15.33 7.88L15.33 7.88Z" stroke="#000000" stroke-opacity="1.000000" stroke-width="1.500000" stroke-linejoin="round"/>
		<path id="Vector" d="M18 20L21.82 16.17C21.93 16.06 22 15.91 22 15.75L22 10.5C22 9.67 21.32 9 20.5 9C19.67 9 19 9.67 19 10.5L19 15" stroke="#000000" stroke-opacity="1.000000" stroke-width="1.500000" stroke-linejoin="round" stroke-linecap="round"/>
		<path id="Vector" d="M18 16L18.85 15.14C18.94 15.05 19 14.92 19 14.79C19 14.61 18.89 14.44 18.73 14.36L18.28 14.14C17.51 13.75 16.58 13.91 15.98 14.51L15.08 15.41C14.71 15.78 14.5 16.29 14.5 16.82L14.5 20" stroke="#000000" stroke-opacity="1.000000" stroke-width="1.500000" stroke-linejoin="round" stroke-linecap="round"/>
		<path id="Vector" d="M6 20L2.17 16.17C2.06 16.06 2 15.91 2 15.75L2 10.5C2 9.67 2.67 9 3.5 9C4.32 9 5 9.67 5 10.5L5 15" stroke="#000000" stroke-opacity="1.000000" stroke-width="1.500000" stroke-linejoin="round" stroke-linecap="round"/>
		<path id="Vector" d="M6 16L5.14 15.14C5.05 15.05 5 14.92 5 14.79C5 14.61 5.1 14.44 5.26 14.36L5.71 14.14C6.48 13.75 7.41 13.91 8.01 14.51L8.91 15.41C9.28 15.78 9.5 16.29 9.5 16.82L9.5 20" stroke="#000000" stroke-opacity="1.000000" stroke-width="1.500000" stroke-linejoin="round" stroke-linecap="round"/>
	</g>
</svg>
