<svg width="24.000000" height="24.000000" viewBox="0 0 24 24" fill="none" xmlns="http://www.w3.org/2000/svg" xmlns:xlink="http://www.w3.org/1999/xlink">
	<desc>
			Created with Pixso.
	</desc>
	<defs>
		<clipPath id="clip3_33">
			<rect id="Icon Message" width="24.000000" height="24.000000" fill="white" fill-opacity="0"/>
		</clipPath>
	</defs>
	<rect id="Icon Message" width="24.000000" height="24.000000" fill="#FFFFFF" fill-opacity="0"/>
	<g clip-path="url(#clip3_33)">
		<path id="Vector" d="M19 4L5 4C4.2 4 3.44 4.31 2.87 4.87C2.31 5.44 2 6.2 2 7L2 17C2 17.79 2.31 18.55 2.87 19.12C3.44 19.68 4.2 20 5 20L19 20C19.79 20 20.55 19.68 21.12 19.12C21.68 18.55 22 17.79 22 17L22 7C22 6.2 21.68 5.44 21.12 4.87C20.55 4.31 19.79 4 19 4L19 4ZM5 6L19 6C19.26 6 19.51 6.1 19.7 6.29C19.89 6.48 20 6.73 20 7L12 11.88L4 7C4 6.73 4.1 6.48 4.29 6.29C4.48 6.1 4.73 6 5 6L5 6ZM20 17C20 17.26 19.89 17.51 19.7 17.7C19.51 17.89 19.26 18 19 18L5 18C4.73 18 4.48 17.89 4.29 17.7C4.1 17.51 4 17.26 4 17L4 9.28L11.48 13.85C11.63 13.93 11.8 13.98 11.98 13.98C12.15 13.98 12.32 13.93 12.48 13.85L20 9.28L20 17Z" fill="#000000" fill-opacity="1.000000" fill-rule="evenodd"/>
	</g>
</svg>
