<svg width="24.000000" height="24.000000" viewBox="0 0 24 24" fill="none"
	xmlns="http://www.w3.org/2000/svg" xmlns:xlink="http://www.w3.org/1999/xlink">
	<desc>
		Created with Pixso.
	</desc>
	<defs>
		<clipPath id="clip3_66">
			<rect id="Icon Github" width="24.000000" height="24.000000" fill="white"
				fill-opacity="0" />
		</clipPath>
	</defs>
	<rect id="Icon Github" width="24.000000" height="24.000000" fill="#FFFFFF" fill-opacity="0" />
	<g clip-path="url(#clip3_66)">
		<path id="Vector"
			d="M12 2.24C9.62 2.24 7.32 3.09 5.52 4.63C3.71 6.16 2.5 8.3 2.12 10.64C1.74 12.98 2.21 15.39 3.44 17.42C4.67 19.45 6.58 20.98 8.83 21.73C9.33 21.82 9.52 21.52 9.52 21.25C9.52 21.02 9.51 20.23 9.51 19.39C7 19.85 6.35 18.78 6.15 18.22C5.92 17.67 5.57 17.18 5.12 16.8C4.77 16.62 4.27 16.15 5.11 16.14C5.43 16.18 5.73 16.29 6 16.47C6.27 16.64 6.49 16.88 6.65 17.17C6.78 17.41 6.97 17.63 7.19 17.8C7.41 17.98 7.66 18.11 7.93 18.18C8.2 18.26 8.48 18.28 8.76 18.25C9.04 18.22 9.31 18.13 9.56 17.99C9.6 17.48 9.83 17.01 10.2 16.65C7.97 16.4 5.65 15.54 5.65 11.72C5.63 10.72 6 9.76 6.67 9.03C6.36 8.17 6.4 7.22 6.77 6.38C6.77 6.38 7.61 6.12 9.52 7.4C11.16 6.95 12.88 6.95 14.52 7.4C16.43 6.1 17.27 6.38 17.27 6.38C17.64 7.22 17.68 8.17 17.37 9.03C18.04 9.76 18.41 10.72 18.4 11.72C18.4 15.55 16.06 16.4 13.83 16.65C14.07 16.9 14.26 17.19 14.37 17.51C14.49 17.83 14.53 18.17 14.51 18.5C14.51 19.84 14.5 20.92 14.5 21.25C14.5 21.52 14.68 21.83 15.18 21.73C17.43 20.97 19.34 19.44 20.56 17.41C21.79 15.38 22.25 12.97 21.86 10.63C21.48 8.29 20.28 6.16 18.47 4.62C16.66 3.09 14.37 2.24 12 2.24L12 2.24Z"
			fill="#000000" fill-opacity="1.000000" fill-rule="evenodd" />
	</g>
</svg>